<svg xmlns="http://www.w3.org/2000/svg" width="20" height="20" viewBox="0 0 20 20" fill="none">
  <path opacity="0.5" d="M10 20C5.28595 20 2.92893 20 1.46447 18.5355C0 17.0711 0 14.714 0 10C0 5.28595 0 2.92893 1.46447 1.46447C2.92893 0 5.28595 0 10 0C14.714 0 17.0711 0 18.5355 1.46447C20 2.92893 20 5.28595 20 10C20 14.714 20 17.0711 18.5355 18.5355C17.0711 20 14.714 20 10 20Z" fill="#00B780"/>
  <path d="M6.96967 6.96967C7.26256 6.67678 7.73744 6.67678 8.03033 6.96967L10 8.93935L11.9697 6.96969C12.2626 6.6768 12.7374 6.6768 13.0303 6.96969C13.3232 7.26258 13.3232 7.73746 13.0303 8.03035L11.0607 10L13.0303 11.9697C13.3232 12.2625 13.3232 12.7374 13.0303 13.0303C12.7374 13.3232 12.2625 13.3232 11.9696 13.0303L10 11.0607L8.03035 13.0303C7.73746 13.3232 7.26258 13.3232 6.96969 13.0303C6.6768 12.7374 6.6768 12.2626 6.96969 11.9697L8.93935 10L6.96967 8.03033C6.67678 7.73744 6.67678 7.26256 6.96967 6.96967Z" fill="#00B780"/>
</svg>