<svg xmlns="http://www.w3.org/2000/svg" width="24" height="25" viewBox="0 0 24 25" fill="none">
  <path d="M15.9998 11.0004C15.9998 11.8288 15.5521 12.5004 14.9998 12.5004C14.4475 12.5004 13.9998 11.8288 13.9998 11.0004C13.9998 10.172 14.4475 9.50039 14.9998 9.50039C15.5521 9.50039 15.9998 10.172 15.9998 11.0004Z" fill="white"/>
  <path d="M9.99982 11.0004C9.99982 11.8288 9.5521 12.5004 8.99982 12.5004C8.44753 12.5004 7.99982 11.8288 7.99982 11.0004C7.99982 10.172 8.44753 9.50039 8.99982 9.50039C9.5521 9.50039 9.99982 10.172 9.99982 11.0004Z" fill="white"/>
  <path fill-rule="evenodd" clip-rule="evenodd" d="M13.2648 2.55116C13.3472 2.14522 13.7431 1.88294 14.149 1.96533C18.3625 2.82056 21.6797 6.13763 22.535 10.3511C22.6173 10.7571 22.3551 11.1529 21.9491 11.2353C21.5432 11.3177 21.1473 11.0555 21.0649 10.6495C20.3295 7.02642 17.4738 4.17075 13.8506 3.43535C13.4447 3.35296 13.1824 2.95709 13.2648 2.55116ZM10.735 2.55121C10.8174 2.95714 10.5551 3.35301 10.1492 3.43541C6.52602 4.1708 3.67032 7.02647 2.93486 10.6496C2.85246 11.0555 2.45659 11.3178 2.05065 11.2354C1.64472 11.153 1.38244 10.7571 1.46484 10.3512C2.32014 6.13769 5.63726 2.82061 9.85079 1.96538C10.2567 1.88299 10.6526 2.14527 10.735 2.55121ZM2.05081 13.7654C2.45675 13.683 2.85262 13.9453 2.93502 14.3512C3.67048 17.9743 6.52618 20.83 10.1493 21.5654C10.5553 21.6478 10.8175 22.0436 10.7351 22.4496C10.6528 22.8555 10.2569 23.1178 9.85095 23.0354C5.63742 22.1802 2.3203 18.8631 1.465 14.6496C1.3826 14.2437 1.64488 13.8478 2.05081 13.7654ZM21.9491 13.7654C22.3551 13.8478 22.6173 14.2437 22.535 14.6496C21.6797 18.8631 18.3625 22.1802 14.149 23.0354C13.7431 23.1178 13.3472 22.8555 13.2648 22.4496C13.1824 22.0436 13.4447 21.6478 13.8506 21.5654C17.4738 20.83 20.3295 17.9743 21.0649 14.3512C21.1473 13.9453 21.5432 13.683 21.9491 13.7654ZM8.39729 16.0538C8.64395 15.721 9.11366 15.6512 9.44643 15.8979C10.1748 16.4377 11.0539 16.7504 11.9998 16.7504C12.9457 16.7504 13.8249 16.4377 14.5532 15.8979C14.886 15.6512 15.3557 15.721 15.6023 16.0538C15.849 16.3865 15.7792 16.8563 15.4464 17.1029C14.474 17.8237 13.2848 18.2504 11.9998 18.2504C10.7148 18.2504 9.52562 17.8237 8.55321 17.1029C8.22044 16.8563 8.15063 16.3865 8.39729 16.0538Z" fill="white"/>
</svg>