<svg xmlns="http://www.w3.org/2000/svg" width="16" height="16" viewBox="0 0 16 16" fill="none">
  <path d="M4 12C4.04244 12 4.08617 12 4.13127 12H8M4 12C3.34115 11.9995 2.99556 11.9912 2.72786 11.8548C2.47698 11.727 2.27316 11.5225 2.14532 11.2716C2 10.9864 2 10.6135 2 9.8668V6.13346C2 5.38673 2 5.01308 2.14532 4.72786C2.27316 4.47698 2.47698 4.27316 2.72786 4.14532C3.01308 4 3.38673 4 4.13346 4H11.8668C12.6135 4 12.9864 4 13.2716 4.14532C13.5225 4.27316 13.727 4.47698 13.8548 4.72786C14 5.0128 14 5.386 14 6.13127V9.86873C14 10.614 14 10.9867 13.8548 11.2716C13.727 11.5225 13.5225 11.727 13.2716 11.8548C12.9867 12 12.614 12 11.8687 12H8M4 12C4.00003 11.2636 4.89545 10.6667 6 10.6667C7.10457 10.6667 8 11.2636 8 12M4 12C4 12 4 12 4 12ZM12 9.33333H9.33333M12 7.33333H10M6 8.66667C5.26362 8.66667 4.66667 8.06971 4.66667 7.33333C4.66667 6.59695 5.26362 6 6 6C6.73638 6 7.33333 6.59695 7.33333 7.33333C7.33333 8.06971 6.73638 8.66667 6 8.66667Z" stroke="white" stroke-linecap="round" stroke-linejoin="round"/>
</svg>