<svg xmlns="http://www.w3.org/2000/svg" width="178" height="178" viewBox="0 0 178 178" fill="none">
  <path opacity="0.4" d="M160.571 74.3889C157.678 70.2355 152.561 67.8622 146.702 67.8622H116.293C114.291 67.8622 112.437 67.0464 111.176 65.563C109.841 64.0797 109.322 62.003 109.618 59.8522L113.401 35.5255C115.033 28.2572 110.212 20.0989 102.943 17.6514C96.1942 15.1297 88.2584 18.5414 85.0692 23.3622L53.7709 69.8647L52.8809 71.348V136.911L53.9934 138.024L77.5042 156.195C80.6192 159.31 87.665 161.016 92.6342 161.016H121.559C131.498 161.016 141.51 153.525 143.735 144.402L161.98 88.8514C163.908 83.5855 163.389 78.468 160.571 74.3889Z" fill="#8A2100"/>
  <path d="M38.6405 47.3105H31.0013C19.5055 47.3105 14.833 51.7605 14.833 62.7372V137.349C14.833 148.326 19.5055 152.776 31.0013 152.776H38.6405C50.1363 152.776 54.8088 148.326 54.8088 137.349V62.7372C54.8088 51.7605 50.1363 47.3105 38.6405 47.3105Z" fill="#00B780"/>
</svg>